<?xml version="1.0" encoding="UTF-8"?>
<svg id="Layer_1" data-name="Layer 1" xmlns="http://www.w3.org/2000/svg" viewBox="0 0 112 30">
  <defs>
    <style>
      .cls-1 {
        fill: #fff;
      }
    </style>
  </defs>
  <path class="cls-1" d="M112,0v30H0V0h112Z"/>
  <g>
    <path d="M11.8,11.74c.88.47,1.56,1.12,2.05,1.97.48.84.73,1.82.73,2.92s-.24,2.06-.73,2.91c-.48.85-1.17,1.51-2.05,1.97-.89.47-1.91.7-3.08.7h-4.19v-11.18h4.19c1.18,0,2.21.23,3.09.7ZM10.94,19.01c.57-.56.86-1.36.86-2.39s-.29-1.83-.86-2.41c-.57-.57-1.38-.86-2.4-.86h-1.29v6.5h1.29c1.03,0,1.83-.28,2.4-.84Z"/>
    <path d="M18.82,11.03v11.18h-2.72v-11.18h2.72ZM16.62,9.68c-.22-.22-.33-.5-.33-.83s.11-.61.33-.84c.22-.23.5-.34.83-.34s.62.11.84.33c.22.22.33.5.33.84s-.11.61-.34.83c-.23.22-.51.33-.84.33s-.61-.11-.83-.33Z"/>
    <path d="M27.8,11.03v7.61c0,1.18-.33,2.09-1,2.72-.66.64-1.56.96-2.68.96s-2.12-.33-2.83-1-1.07-1.62-1.07-2.85h2.71c0,.47.1.82.29,1.06s.47.36.83.36c.33,0,.58-.11.76-.32.18-.21.27-.52.27-.92v-7.61h2.72Z"/>
    <path d="M32.72,11.03v11.18h-2.72v-11.18h2.72ZM30.53,9.68c-.22-.22-.33-.5-.33-.83s.11-.61.33-.84c.22-.23.5-.34.83-.34s.62.11.84.33c.22.22.33.5.33.84s-.11.61-.34.83c-.23.22-.51.33-.84.33s-.61-.11-.83-.33Z"/>
    <path d="M42.74,11.03v2.18h-2.96v9h-2.72v-9h-2.96v-2.18h8.65Z"/>
    <path d="M51.07,20.24h-4.17l-.67,1.97h-2.85l4.05-11.18h3.15l4.04,11.18h-2.88l-.67-1.97ZM50.37,18.14l-1.39-4.09-1.37,4.09h2.76Z"/>
    <path d="M58.57,20.11h3.57v2.1h-6.29v-11.18h2.72v9.08Z"/>
    <path d="M73.03,11.03l-3.87,7.48v3.7h-2.72v-3.7l-3.87-7.48h3.09l2.17,4.68,2.15-4.68h3.06Z"/>
    <path d="M81.09,20.24h-4.17l-.67,1.97h-2.85l4.04-11.18h3.15l4.05,11.18h-2.88l-.67-1.97ZM80.39,18.14l-1.38-4.09-1.37,4.09h2.75Z"/>
    <path d="M92.35,22.21l-3.76-4.94v4.94h-2.72v-11.18h2.72v4.9l3.73-4.9h3.2l-4.33,5.48,4.49,5.7h-3.33Z"/>
    <path d="M103.93,20.24h-4.17l-.67,1.97h-2.85l4.04-11.18h3.15l4.05,11.18h-2.88l-.67-1.97ZM103.23,18.14l-1.38-4.09-1.37,4.09h2.75Z"/>
  </g>
</svg>